<svg width="24" height="25" viewBox="0 0 24 25" fill="none" xmlns="http://www.w3.org/2000/svg">
<path d="M6.5 1.88892H5.40027C3.86012 1.88892 3.08948 1.88892 2.50122 2.18865C1.98377 2.4523 1.56338 2.87269 1.29973 3.39014C1 3.97839 1 4.74904 1 6.28918V19.4892C1 21.0293 1 21.799 1.29973 22.3873C1.56338 22.9047 1.98377 23.3258 2.50122 23.5895C3.0889 23.8889 3.85862 23.8889 5.39575 23.8889H6.5M6.5 1.88892H18.6003C20.1404 1.88892 20.9094 1.88892 21.4977 2.18865C22.0151 2.4523 22.4369 2.87269 22.7006 3.39014C23 3.97782 23 4.74753 23 6.28467V19.4938C23 21.031 23 21.7996 22.7006 22.3873C22.4369 22.9047 22.0151 23.3258 21.4977 23.5895C20.91 23.8889 20.1414 23.8889 18.6042 23.8889H6.5M6.5 1.88892V23.8889M12 11.5139H17.5M12 7.38892H17.5" stroke="#121212" stroke-opacity="0.3" stroke-width="2" stroke-linecap="round" stroke-linejoin="round"/>
</svg>
