<svg width="32" height="31" viewBox="0 0 32 31" fill="none" xmlns="http://www.w3.org/2000/svg">
<path d="M11.5639 22.7609C16.8248 22.4541 21.0006 17.8781 21.0006 12.2777C21.0006 6.4788 16.5233 1.77783 11.0003 1.77783C5.47729 1.77783 1 6.4788 1 12.2777C1 14.3439 1.56825 16.2707 2.54986 17.8951L1.84312 20.1212L1.842 20.1245C1.57131 20.9771 1.43591 21.4037 1.53232 21.6875C1.61634 21.9349 1.80283 22.1299 2.03844 22.2181C2.30791 22.319 2.71129 22.1779 3.51789 21.8955L3.52937 21.8919L5.65021 21.1498C7.19736 22.1805 9.0325 22.7773 11.0004 22.7773C11.1895 22.7773 11.3774 22.7718 11.5639 22.7609ZM11.5639 22.7609C11.564 22.7613 11.5637 22.7605 11.5639 22.7609ZM11.5639 22.7609C12.9321 26.8479 16.6406 29.7778 21.0008 29.7778C22.9687 29.7778 24.8035 29.1805 26.3505 28.1498L28.4709 28.8918L28.475 28.8927C29.287 29.1769 29.6939 29.3193 29.9643 29.2181C30.1999 29.1298 30.384 28.9348 30.468 28.6874C30.5646 28.4032 30.4295 27.9762 30.1581 27.1212L29.4514 24.895L29.6881 24.4832C30.5239 22.949 31 21.1717 31 19.2777C31 13.4787 26.5236 8.77777 21.0006 8.77777L20.6262 8.78501L20.4374 8.7947" stroke="#121212" stroke-opacity="0.3" stroke-width="2" stroke-linecap="round" stroke-linejoin="round"/>
</svg>
