<svg width="24" height="32" viewBox="0 0 24 32" fill="none" xmlns="http://www.w3.org/2000/svg">
<path d="M7.28571 24.3333H16.7143M7.28571 19.3333H16.7143M13.572 1.00145C13.4219 1 13.253 1 13.0603 1H6.02888C4.26871 1 3.38797 1 2.71568 1.36331C2.12431 1.68289 1.64387 2.19245 1.34255 2.81966C1 3.5327 1 4.46682 1 6.33366V25.667C1 27.5338 1 28.4668 1.34255 29.1798C1.64387 29.807 2.12431 30.3175 2.71568 30.637C3.38732 31 4.26701 31 6.02376 31L17.9763 31C19.733 31 20.6114 31 21.283 30.637C21.8744 30.3175 22.3565 29.807 22.6578 29.1798C23 28.4675 23 27.5358 23 25.6726V11.5428C23 11.3384 22.9998 11.1592 22.9985 11M13.572 1.00145C14.0206 1.00579 14.3033 1.02344 14.5743 1.09245C14.895 1.17411 15.2023 1.30877 15.4835 1.49154C15.8006 1.69761 16.0728 1.98636 16.6161 2.5625L21.5275 7.77164C22.0711 8.34814 22.3414 8.6356 22.5357 8.97199C22.708 9.27023 22.8355 9.59543 22.9125 9.93555C22.9776 10.223 22.9944 10.5242 22.9985 11M13.572 1.00145L13.5714 5.66701C13.5714 7.53386 13.5714 8.46692 13.914 9.17996C14.2153 9.80716 14.6957 10.3175 15.2871 10.637C15.9587 11 16.8384 11 18.5952 11H22.9985" stroke="#121212" stroke-opacity="0.3" stroke-width="2" stroke-linecap="round" stroke-linejoin="round"/>
</svg>
