<svg width="52" height="52" viewBox="0 0 52 52" fill="none" xmlns="http://www.w3.org/2000/svg">
<g id="File / File_Document">
<path id="Vector" d="M22.1429 32.6667H29.8571M22.1429 28.6667H29.8571M27.2862 14.0012C27.1634 14 27.0252 14 26.8675 14H21.1145C19.6744 14 18.9538 14 18.4037 14.2907C17.9199 14.5463 17.5268 14.954 17.2803 15.4557C17 16.0262 17 16.7735 17 18.2669V33.7336C17 35.2271 17 35.9734 17.2803 36.5438C17.5268 37.0456 17.9199 37.454 18.4037 37.7096C18.9533 38 19.673 38 21.1103 38L30.8897 38C32.327 38 33.0457 38 33.5952 37.7096C34.0791 37.454 34.4735 37.0456 34.72 36.5438C35 35.974 35 35.2287 35 33.7381V22.4342C35 22.2707 34.9999 22.1274 34.9987 22M27.2862 14.0012C27.6532 14.0046 27.8845 14.0188 28.1062 14.074C28.3686 14.1393 28.6201 14.247 28.8502 14.3932C29.1096 14.5581 29.3323 14.7891 29.7768 15.25L33.7953 19.4173C34.24 19.8785 34.4611 20.1085 34.6201 20.3776C34.7611 20.6162 34.8654 20.8763 34.9284 21.1484C34.9817 21.3784 34.9954 21.6194 34.9987 22M27.2862 14.0012L27.2857 17.7336C27.2857 19.2271 27.2857 19.9735 27.566 20.544C27.8125 21.0457 28.2056 21.454 28.6895 21.7096C29.239 22 29.9587 22 31.396 22H34.9987" stroke="#121212" stroke-opacity="0.3" stroke-width="2" stroke-linecap="round" stroke-linejoin="round"/>
</g>
</svg>
