<svg width="34" height="33" viewBox="0 0 34 33" fill="none" xmlns="http://www.w3.org/2000/svg">
<path d="M22.3331 14.7917L15.2221 22.2917L11.6665 18.5417M1 5.41675V25.6667C1 27.7669 1 28.8163 1.38753 29.6185C1.72841 30.3241 2.27194 30.8989 2.94095 31.2584C3.70077 31.6667 4.69594 31.6667 6.68332 31.6667H27.3163C29.3037 31.6667 30.2974 31.6667 31.0572 31.2584C31.7262 30.8989 32.2716 30.3245 32.6125 29.6188C33 28.8167 33 27.7666 33 25.6664L33 11.4163C33 9.31613 33 8.26604 32.6125 7.46387C32.2716 6.75826 31.7266 6.185 31.0576 5.82547C30.297 5.41675 29.3021 5.41675 27.3108 5.41675H16.9998M1 5.41675H16.9998M1 5.41675C1 3.34568 2.59186 1.66675 4.55551 1.66675H11.0879C11.9576 1.66675 12.3934 1.66675 12.8026 1.77036C13.1654 1.86222 13.5116 2.01412 13.8297 2.21973C14.1884 2.45156 14.4964 2.7764 15.1109 3.42456L16.9998 5.41675" stroke="#121212" stroke-opacity="0.3" stroke-width="2" stroke-linecap="round" stroke-linejoin="round"/>
</svg>
