<svg width="30" height="31" viewBox="0 0 30 31" fill="none" xmlns="http://www.w3.org/2000/svg">
<path d="M1 14.8316V24.3217C1 26.3093 1 27.3039 1.38148 28.0631C1.71703 28.7309 2.25208 29.2733 2.91064 29.6136C3.6586 30 4.63824 30 6.59459 30H23.4054C25.3618 30 26.34 30 27.0879 29.6136C27.7465 29.2733 28.2833 28.7309 28.6189 28.0631C29 27.3046 29 26.3116 29 24.3279V14.8316C29 13.8834 28.9992 13.409 28.8855 12.9678C28.7847 12.5768 28.6193 12.2068 28.3955 11.8724C28.1429 11.4951 27.7917 11.1822 27.088 10.5578L18.688 3.10479C17.3814 1.94552 16.7281 1.36617 15.9929 1.1457C15.3451 0.951433 14.6546 0.951433 14.0067 1.1457C13.2721 1.36601 12.6197 1.9448 11.3151 3.10232L2.91235 10.5578C2.20862 11.1822 1.85757 11.4951 1.60498 11.8724C1.38114 12.2068 1.21446 12.5768 1.1137 12.9678C1 13.409 1 13.8834 1 14.8316Z" stroke="#121212" stroke-opacity="0.3" stroke-width="2" stroke-linecap="round" stroke-linejoin="round"/>
</svg>
