<svg width="36" height="44" viewBox="0 0 36 44" fill="none" xmlns="http://www.w3.org/2000/svg">
<path d="M2.61737 13.0371C2.58835 10.7794 2.68678 8.54773 2.42363 6.32742C2.39348 6.07307 2.32931 5.8197 2.25303 5.57505C2.07142 4.99248 1.81153 4.8023 1.21375 4.78648C1.07757 4.78288 0.933292 4.81755 0.807212 4.78138C0.694436 4.74903 0.601624 4.64327 0.5 4.56991C0.582103 4.50618 0.655195 4.41649 0.747662 4.38263C2.07863 3.89528 3.43004 3.46118 4.7407 2.92233C6.41227 2.2351 7.95226 1.29515 9.35261 0.12149C9.46191 0.0298859 9.66715 -0.0284509 9.78915 0.0142584C9.87017 0.0426214 9.93273 0.284849 9.91681 0.420611C9.83297 1.13513 9.71474 1.8453 9.62214 2.55885C9.5629 3.01533 9.51508 3.4742 9.4845 3.93356C9.45106 4.43593 9.44338 4.94012 9.42786 5.47324C9.40368 6.7174 9.36284 7.93171 9.35197 9.1463C9.33895 10.6014 9.34108 12.0569 9.36098 13.5119C9.36549 13.8417 9.47015 14.1701 9.52872 14.4992C9.562 14.5029 9.59528 14.5066 9.62856 14.5103C9.72117 14.3621 9.8173 14.2161 9.90582 14.0653C10.5498 12.9687 11.301 11.9665 12.2899 11.1684C13.7096 10.0227 15.316 9.62589 17.0831 9.93624C19.8383 10.4201 21.7349 12.0693 22.8921 14.6237C23.304 15.5327 23.5492 16.5214 23.8819 17.5078C24.3126 17.3553 24.819 17.1903 25.3153 16.998C27.5055 16.1494 29.5858 15.0948 31.4098 13.5584C31.5046 13.4786 31.705 13.4296 31.7993 13.4796C31.89 13.5277 31.9604 13.7289 31.9477 13.8528C31.7962 15.3275 31.5998 16.7978 31.4736 18.2745C31.3979 19.1609 31.409 20.0566 31.4077 20.9481C31.3999 26.3815 31.3916 31.8149 31.4089 37.2482C31.4108 37.842 31.5201 38.4509 31.6765 39.0249C31.8781 39.7644 32.4562 40.0113 33.2061 39.8734C34.0461 39.719 34.506 39.1993 34.7481 38.407C35.0777 37.3286 35.1899 36.2168 35.2467 35.0951C35.2542 34.9464 35.3078 34.8001 35.3401 34.6527C35.3884 34.6588 35.4367 34.6648 35.485 34.6708C35.485 35.1129 35.5228 35.559 35.4784 35.9963C35.2937 37.8195 34.8056 39.5469 33.8223 41.096C33.0721 42.2779 32.1249 43.2306 30.7865 43.6931C28.5065 44.4808 25.4416 43.2468 24.9121 40.0599C24.891 39.9326 24.8889 39.7925 24.8322 39.6833C24.7734 39.5701 24.6719 39.4389 24.5642 39.4087C24.497 39.3899 24.357 39.5256 24.2961 39.6227C23.9952 40.1021 23.7365 40.6113 23.4141 41.0742C22.4213 42.4997 21.1411 43.5221 19.4322 43.8621C17.5261 44.2413 15.7552 43.8286 14.1456 42.7434C12.0959 41.3614 10.9321 39.3496 10.4331 36.9261C9.96356 34.6452 10.0653 32.3858 10.8637 30.1817C10.8851 30.1227 10.8979 30.0604 10.9074 30.0262C9.53407 29.3728 8.17692 28.7229 6.81594 28.0816C6.2924 27.8349 5.72686 27.8479 5.17595 27.9025C4.94379 27.9256 4.69366 28.0755 4.50995 28.2374C3.90531 28.7704 3.33371 29.3427 2.73466 29.8826C2.58256 30.0197 2.3757 30.0927 2.194 30.1952C2.17185 29.9913 2.11725 29.7848 2.13264 29.584C2.26502 27.856 2.42606 26.1302 2.54799 24.4014C2.81432 20.6255 2.66627 16.8456 2.61737 13.0371ZM24.6021 24.8219C24.6139 24.8051 24.6256 24.7882 24.6405 24.712C24.6245 23.4744 24.6454 22.2347 24.5782 21.0001C24.5406 20.3096 24.3683 19.6251 24.2309 18.9434C24.197 18.7749 24.0625 18.6278 23.9742 18.4709C23.9464 18.4815 23.9186 18.4922 23.8908 18.5028C24.0411 20.3809 23.8361 22.2075 23.1398 23.9298C23.6463 24.2385 24.1133 24.5232 24.6021 24.8219ZM9.3552 21.3164C9.37428 21.6496 9.38993 21.983 9.41303 22.3158C9.5158 23.7968 9.78611 25.239 10.3894 26.5985C10.6985 27.2951 11.0861 27.9407 11.6499 28.5011C13.171 25.9561 15.2746 24.2377 18.1283 23.4871C18.0774 23.1597 18.039 22.8422 17.9777 22.5296C17.5026 20.1102 16.7116 17.8208 15.2876 15.8041C14.6617 14.9176 13.9651 14.08 12.9555 13.6443C11.5863 13.0535 10.5527 13.3631 9.92232 14.7749C9.55361 15.6007 9.41039 16.4896 9.36866 17.3755C9.30791 18.6651 9.35387 19.96 9.3552 21.3164ZM21.299 26.9916C19.8729 28.6746 18.1102 29.794 15.9645 30.2927C16.467 33.3984 17.5424 36.2017 19.4756 38.6187C20.0248 39.3054 20.6661 39.893 21.4938 40.2268C22.6352 40.6872 23.7354 40.2268 24.2317 39.0793C24.5786 38.2774 24.693 37.42 24.7146 36.5638C24.7545 34.9833 24.7425 33.4052 24.5491 31.8255C24.3298 30.0344 23.9373 28.3093 23.1364 26.6981C22.9292 26.2812 22.6552 25.8993 22.4101 25.4985C22.026 26.0159 21.677 26.4862 21.299 26.9916ZM18.1785 24.3509C18.1678 24.2601 18.1572 24.1693 18.1419 24.0388C17.3832 24.2375 16.8084 24.6361 16.4428 25.3073C15.6791 26.709 15.802 28.2233 15.9112 29.7589C17.0074 29.5304 17.6561 28.8616 17.9834 27.8264C18.3383 26.7038 18.2433 25.5525 18.1785 24.3509Z" fill="#A07BFC"/>
</svg>
