<svg width="52" height="52" viewBox="0 0 52 52" fill="none" xmlns="http://www.w3.org/2000/svg">
<g id="Group 3">
<circle id="Ellipse 1" cx="26" cy="26" r="26" fill="#A07BFC"/>
<g id="BD">
<path d="M23.3491 25.666C23.9084 25.9005 24.359 26.3049 24.7007 26.8794C25.0425 27.4421 25.2134 28.0751 25.2134 28.7785C25.2134 29.7281 24.9234 30.5135 24.3434 31.1348C23.7634 31.7561 23.0384 32.0668 22.1684 32.0668H16.4668V19.9335H21.9665C22.7743 19.9335 23.4475 20.2265 23.9861 20.8127C24.535 21.3871 24.8095 22.114 24.8095 22.9932C24.8095 23.5676 24.6749 24.101 24.4056 24.5934C24.1466 25.074 23.7945 25.4316 23.3491 25.666ZM21.6247 22.0788H17.9427V24.8571H21.6247C22.1011 24.8571 22.4947 24.7282 22.8054 24.4703C23.1265 24.2007 23.287 23.8548 23.287 23.4328C23.287 23.0225 23.1316 22.6942 22.8209 22.4481C22.5206 22.2019 22.1218 22.0788 21.6247 22.0788ZM21.8266 29.9215C22.3756 29.9215 22.8209 29.7808 23.1627 29.4995C23.5045 29.2181 23.6754 28.843 23.6754 28.3741C23.6754 27.8817 23.5045 27.489 23.1627 27.1959C22.8209 26.8911 22.3756 26.7387 21.8266 26.7387H17.9427V29.9215H21.8266Z" fill="#121212"/>
<path d="M30.9471 19.9335C32.511 19.9335 33.8108 20.5138 34.8466 21.6743C35.8823 22.8232 36.4001 24.2651 36.4001 26.0001C36.4001 27.7351 35.8823 29.1829 34.8466 30.3435C33.8108 31.4924 32.511 32.0668 30.9471 32.0668H26.7835V19.9335H30.9471ZM30.916 29.9215C32.0449 29.9215 32.9823 29.5464 33.728 28.7961C34.4841 28.0458 34.8621 27.1138 34.8621 26.0001C34.8621 24.8865 34.4841 23.9545 33.728 23.2042C32.9823 22.4539 32.0449 22.0788 30.916 22.0788H28.2594V29.9215H30.916Z" fill="#121212"/>
</g>
</g>
</svg>
