<svg width="32" height="28" viewBox="0 0 32 28" fill="none" xmlns="http://www.w3.org/2000/svg">
<path d="M24.3333 26.7778C24.3333 24.0164 20.6024 21.7778 16 21.7778C11.3976 21.7778 7.66667 24.0164 7.66667 26.7778M31 21.7785C31 19.7281 28.9432 17.9661 26 17.1945M1 21.7785C1 19.7281 3.05683 17.9661 6 17.1945M26 10.5047C27.0229 9.58914 27.6667 8.25867 27.6667 6.77783C27.6667 4.01641 25.4281 1.77783 22.6667 1.77783C21.3861 1.77783 20.2179 2.25925 19.3333 3.05099M6 10.5047C4.97708 9.58914 4.33333 8.25867 4.33333 6.77783C4.33333 4.01641 6.57191 1.77783 9.33333 1.77783C10.6139 1.77783 11.7821 2.25925 12.6667 3.05099M16 16.7778C13.2386 16.7778 11 14.5393 11 11.7778C11 9.01641 13.2386 6.77783 16 6.77783C18.7614 6.77783 21 9.01641 21 11.7778C21 14.5393 18.7614 16.7778 16 16.7778Z" stroke="#121212" stroke-opacity="0.3" stroke-width="2" stroke-linecap="round" stroke-linejoin="round"/>
</svg>
