<svg width="62" height="62" viewBox="0 0 62 62" fill="none" xmlns="http://www.w3.org/2000/svg">
<rect width="62" height="62" rx="20" fill="white"/>
<path d="M48.6471 31.1078C48.6471 21.302 40.7463 13.3529 31.0001 13.3529C21.2539 13.3529 13.353 21.302 13.353 31.1078C13.353 39.9697 19.8063 47.3151 28.2427 48.647V36.2401H23.762V31.1078H28.2427V27.1962C28.2427 22.7464 30.8774 20.2884 34.9083 20.2884C36.8384 20.2884 38.8585 20.6352 38.8585 20.6352V25.0046H36.6334C34.4413 25.0046 33.7574 26.3733 33.7574 27.7788V31.1078H38.6517L37.8693 36.2401H33.7574V48.647C42.1939 47.3151 48.6471 39.9697 48.6471 31.1078Z" fill="#121212"/>
</svg>
