<svg width="62" height="62" viewBox="0 0 62 62" fill="none" xmlns="http://www.w3.org/2000/svg">
<rect width="62" height="62" rx="20" fill="white"/>
<g clip-path="url(#clip0_734_373)">
<path d="M31 14.6016C36.3438 14.6016 36.9766 14.625 39.0781 14.7187C41.0313 14.8047 42.0859 15.1328 42.7891 15.4063C43.7188 15.7656 44.3906 16.2031 45.0859 16.8984C45.7891 17.6016 46.2188 18.2656 46.5781 19.1953C46.8516 19.8984 47.1797 20.9609 47.2656 22.9062C47.3594 25.0156 47.3828 25.6484 47.3828 30.9844C47.3828 36.3281 47.3594 36.9609 47.2656 39.0625C47.1797 41.0156 46.8516 42.0703 46.5781 42.7734C46.2188 43.7031 45.7813 44.375 45.0859 45.0703C44.3828 45.7734 43.7188 46.2031 42.7891 46.5625C42.0859 46.8359 41.0234 47.1641 39.0781 47.25C36.9688 47.3438 36.3359 47.3672 31 47.3672C25.6563 47.3672 25.0234 47.3438 22.9219 47.25C20.9688 47.1641 19.9141 46.8359 19.2109 46.5625C18.2813 46.2031 17.6094 45.7656 16.9141 45.0703C16.2109 44.3672 15.7813 43.7031 15.4219 42.7734C15.1484 42.0703 14.8203 41.0078 14.7344 39.0625C14.6406 36.9531 14.6172 36.3203 14.6172 30.9844C14.6172 25.6406 14.6406 25.0078 14.7344 22.9062C14.8203 20.9531 15.1484 19.8984 15.4219 19.1953C15.7813 18.2656 16.2188 17.5938 16.9141 16.8984C17.6172 16.1953 18.2813 15.7656 19.2109 15.4063C19.9141 15.1328 20.9766 14.8047 22.9219 14.7187C25.0234 14.625 25.6563 14.6016 31 14.6016ZM31 11C25.5703 11 24.8906 11.0234 22.7578 11.1172C20.6328 11.2109 19.1719 11.5547 17.9063 12.0469C16.5859 12.5625 15.4688 13.2422 14.3594 14.3594C13.2422 15.4688 12.5625 16.5859 12.0469 17.8984C11.5547 19.1719 11.2109 20.625 11.1172 22.75C11.0234 24.8906 11 25.5703 11 31C11 36.4297 11.0234 37.1094 11.1172 39.2422C11.2109 41.3672 11.5547 42.8281 12.0469 44.0938C12.5625 45.4141 13.2422 46.5312 14.3594 47.6406C15.4688 48.75 16.5859 49.4375 17.8984 49.9453C19.1719 50.4375 20.625 50.7812 22.75 50.875C24.8828 50.9688 25.5625 50.9922 30.9922 50.9922C36.4219 50.9922 37.1016 50.9688 39.2344 50.875C41.3594 50.7812 42.8203 50.4375 44.0859 49.9453C45.3984 49.4375 46.5156 48.75 47.625 47.6406C48.7344 46.5312 49.4219 45.4141 49.9297 44.1016C50.4219 42.8281 50.7656 41.375 50.8594 39.25C50.9531 37.1172 50.9766 36.4375 50.9766 31.0078C50.9766 25.5781 50.9531 24.8984 50.8594 22.7656C50.7656 20.6406 50.4219 19.1797 49.9297 17.9141C49.4375 16.5859 48.7578 15.4688 47.6406 14.3594C46.5313 13.25 45.4141 12.5625 44.1016 12.0547C42.8281 11.5625 41.375 11.2188 39.25 11.125C37.1094 11.0234 36.4297 11 31 11Z" fill="#121212"/>
<path d="M31 20.7266C25.3281 20.7266 20.7266 25.3281 20.7266 31C20.7266 36.6719 25.3281 41.2734 31 41.2734C36.6719 41.2734 41.2734 36.6719 41.2734 31C41.2734 25.3281 36.6719 20.7266 31 20.7266ZM31 37.6641C27.3203 37.6641 24.3359 34.6797 24.3359 31C24.3359 27.3203 27.3203 24.3359 31 24.3359C34.6797 24.3359 37.6641 27.3203 37.6641 31C37.6641 34.6797 34.6797 37.6641 31 37.6641Z" fill="#121212"/>
<path d="M44.0781 20.3202C44.0781 21.6483 43 22.7186 41.6797 22.7186C40.3516 22.7186 39.2812 21.6405 39.2812 20.3202C39.2812 18.9921 40.3594 17.9218 41.6797 17.9218C43 17.9218 44.0781 18.9999 44.0781 20.3202Z" fill="#121212"/>
</g>
<defs>
<clipPath id="clip0_734_373">
<rect width="40" height="40" fill="white" transform="translate(11 11)"/>
</clipPath>
</defs>
</svg>
