<svg width="192" height="146" viewBox="0 0 192 146" fill="none" xmlns="http://www.w3.org/2000/svg">
<circle cx="90.5" cy="73" r="73" fill="#A07BFC"/>
<mask id="mask0_822_93" style="mask-type:alpha" maskUnits="userSpaceOnUse" x="17" y="0" width="147" height="146">
<circle cx="90.5" cy="73" r="73" fill="#A07BFC"/>
</mask>
<g mask="url(#mask0_822_93)">
<path d="M129.21 76.8979C129.21 74.8748 129.422 66.2944 129.21 62.5353L124.209 63.1736L111.974 73.4934C109.705 78.742 99.1654 97.5161 99.8463 100.41C100.697 104.027 114.434 106.951 118.89 110.091C136.551 122.539 133.04 99.9844 132.295 95.516C131.55 91.0476 129.21 82.8557 129.21 76.8979Z" fill="#17100F"/>
<path fill-rule="evenodd" clip-rule="evenodd" d="M55.6946 55.734C55.6946 55.734 52.6349 90.2498 50.1626 97.8832C47.6904 105.517 42.0114 121.414 43.2028 131.112C44.3941 140.811 44.6306 141.794 50.1626 138.709C55.6946 135.625 120.591 90.7058 120.591 90.7058L55.6946 55.734Z" fill="#17100F"/>
<rect x="83.356" y="81.6854" width="17.2351" height="24.6824" rx="8.61755" fill="#8D6956"/>
<path d="M78.0366 163.995V105.517H106.975V163.995C106.975 163.995 96.8303 165.733 92.5056 165.733C88.1809 165.733 78.0366 163.995 78.0366 163.995Z" fill="#E7D6D3"/>
<path d="M91.4415 101.687C85.2284 101.687 81.3345 98.7077 80.1642 97.2183L76.7598 104.346C78.9939 106.758 85.0581 111.581 91.4415 111.581C97.8249 111.581 104.031 108.389 106.336 106.793L103.995 97.2183C102.4 98.7077 97.6547 101.687 91.4415 101.687Z" fill="#E6CECB"/>
<rect x="52.3813" y="96.9697" width="36.8056" height="76.1108" rx="18.4028" transform="rotate(8.5 52.3813 96.9697)" fill="#6D41DA"/>
<rect x="38.4597" y="159.03" width="22.5841" height="44.2799" rx="11.2921" transform="rotate(-45 38.4597 159.03)" fill="#67513B"/>
<path d="M54.3931 211.086L63.5315 97.5861L83.2495 96.1543L90.1649 136.476C88.3371 160.601 85.8293 214.924 85.8293 217.848C85.8293 220.773 63.5315 214.132 54.3931 211.086Z" fill="#6D41DA"/>
<path d="M90.2713 136.263L83.1432 95.6223C78.0365 94.8776 71.5467 95.1612 68.4614 95.6223L86.654 135.625L88.9946 153.285L90.2713 136.263Z" fill="#50319E"/>
<path d="M130.425 209.806L121.337 97.5374L100.591 96.6863L94.7397 137.008C96.5675 161.133 98.9887 213.644 98.9887 216.569C98.9887 219.493 121.287 212.852 130.425 209.806Z" fill="#6D41DA"/>
<path d="M94.7397 137.221L100.591 96.3671C105.591 95.3032 112.046 95.3032 114.528 95.3032L99.7401 139.029L96.7611 171.691L94.7397 137.221Z" fill="#50319E"/>
<rect width="19.2656" height="53.622" rx="9.63281" transform="matrix(-0.981627 0.190809 0.190809 0.981627 132.522 96.3672)" fill="#6D41DA"/>
<path fill-rule="evenodd" clip-rule="evenodd" d="M120.66 171.271L124.703 140.631L140.313 142.69L136.27 173.331C135.702 177.641 131.746 180.675 127.435 180.106C123.125 179.537 120.091 175.582 120.66 171.271L120.66 171.271Z" fill="#F6DDD6"/>
<rect width="19.2656" height="37.9576" rx="9.63281" transform="matrix(-0.998135 -0.0610485 -0.0610485 0.998135 142.075 134.567)" fill="#67513B"/>
<path d="M83.7278 142.913C84.8886 142.913 85.8297 141.972 85.8297 140.811C85.8297 139.65 84.8886 138.709 83.7278 138.709C82.567 138.709 81.626 139.65 81.626 140.811C81.626 141.972 82.567 142.913 83.7278 142.913Z" fill="#50319E"/>
<path d="M119.954 69.5569C124.655 69.5569 128.465 65.3178 128.465 60.0883C128.465 54.8588 124.655 50.6196 119.954 50.6196C115.254 50.6196 111.443 54.8588 111.443 60.0883C111.443 65.3178 115.254 69.5569 119.954 69.5569Z" fill="#60473B"/>
<path d="M64.206 69.5569C59.5054 69.5569 55.6948 65.3178 55.6948 60.0883C55.6948 54.8588 59.5054 50.6196 64.206 50.6196C68.9065 50.6196 72.7171 54.8588 72.7171 60.0883C72.7171 65.3178 68.9065 69.5569 64.206 69.5569Z" fill="#60473B"/>
<path d="M62.8898 38.8879C62.2628 22.3157 75.4853 8.4895 92.0695 8.4895C108.821 8.4895 122.049 22.5814 121.416 39.3212C121.217 44.5787 121.108 48.9915 121.197 50.9936C121.353 54.5249 119.641 64.9446 117.93 74.2861C116.048 84.562 108.066 92.5759 97.8522 94.7696C94.2536 95.5424 90.5287 95.5516 86.9262 94.7986C76.4072 92.6001 68.2308 84.2537 66.4515 73.6558C64.9031 64.4323 63.3381 54.3491 63.2869 50.9936C63.2562 48.9886 63.0975 44.3721 62.8898 38.8879Z" fill="#8D6956"/>
<path fill-rule="evenodd" clip-rule="evenodd" d="M80.6606 68.2845V72.4976C80.6606 78.9831 85.9012 84.2387 92.3633 84.2387C98.8273 84.2387 104.066 78.9831 104.066 72.4976V68.2845H80.6606Z" fill="#393939"/>
<mask id="mask1_822_93" style="mask-type:luminance" maskUnits="userSpaceOnUse" x="80" y="68" width="25" height="17">
<path fill-rule="evenodd" clip-rule="evenodd" d="M80.6798 68.2803C80.667 68.4975 80.6606 68.7167 80.6606 68.9358V73.0395C80.6606 79.2256 85.9012 84.2387 92.3633 84.2387C98.8273 84.2387 104.066 79.2256 104.066 73.0395V68.9358C104.066 68.7167 104.059 68.4975 104.047 68.2803H80.6798Z" fill="white"/>
</mask>
<g mask="url(#mask1_822_93)">
<path d="M92.3631 88.0034C96.261 88.0034 99.4206 86.2778 99.4206 84.1494C99.4206 82.0207 96.261 80.2953 92.3631 80.2953C88.4654 80.2953 85.3057 82.0207 85.3057 84.1494C85.3057 86.2778 88.4654 88.0034 92.3631 88.0034Z" fill="#FF6C6C"/>
</g>
<rect x="80.6606" y="68.2845" width="23.4057" height="4.84" fill="white"/>
<path d="M74.7415 37.8705C78.0026 37.3269 81.6048 37.627 85.1641 38.8832C85.829 39.1179 86.1778 39.8471 85.9431 40.512C85.7084 41.1769 84.9792 41.5256 84.3143 41.291C81.1654 40.1796 78 39.9159 75.1612 40.3891C74.3227 40.5288 73.6308 40.7539 73.0699 41.0363C72.752 41.1964 72.5024 41.3615 72.3145 41.5187C72.2686 41.5571 72.2312 41.591 72.202 41.6197L72.1765 41.645C72.1767 41.6445 72.1808 41.6395 72.1888 41.6295C71.7482 42.18 70.9448 42.2692 70.3943 41.8286C69.8438 41.388 69.7547 40.5846 70.1952 40.0341C70.2939 39.9108 70.4523 39.7475 70.6763 39.5601C71.0128 39.2786 71.4264 39.0051 71.9217 38.7557C72.713 38.3573 73.6507 38.0522 74.7415 37.8705Z" fill="#62360D"/>
<path d="M98.1637 38.7806C101.134 37.4788 105.568 37.1501 108.733 37.696C109.755 37.8722 110.689 38.2066 111.529 38.6536C111.98 38.8943 112.378 39.1536 112.721 39.4158L112.824 39.4962C112.987 39.626 113.11 39.7344 113.19 39.8128C113.693 40.3064 113.701 41.1147 113.207 41.6182C112.726 42.1088 111.947 42.1289 111.441 41.673L111.39 41.6255L111.366 41.6039C111.313 41.5574 111.247 41.5031 111.168 41.443C110.933 41.2628 110.652 41.0795 110.328 40.9072C109.719 40.5829 109.041 40.34 108.299 40.2122C105.594 39.7456 101.657 40.0374 99.1886 41.1192C98.5428 41.4022 97.7899 41.1081 97.5069 40.4623C97.2238 39.8165 97.5179 39.0636 98.1637 38.7806Z" fill="#62360D"/>
<path d="M90.7885 53.4465L93.7982 55.453C92.7753 56.9874 91.9742 59.2906 91.9742 60.9661C91.9742 62.5818 92.5576 63.2609 94.3438 63.2797L94.4211 63.2801V66.8973C90.4755 66.8973 88.3569 64.5139 88.3569 60.9661C88.3569 58.5628 89.3568 55.6453 90.7141 53.5595L90.7885 53.4465Z" fill="#60473B"/>
<path d="M100.384 48.8459C103.23 47.5095 107.295 47.5536 110.865 48.7862C111.643 49.0547 112.056 49.9027 111.787 50.6803C111.519 51.4578 110.671 51.8705 109.893 51.602C107.004 50.6043 103.723 50.5688 101.65 51.5423C100.905 51.892 100.018 51.5718 99.6687 50.8272C99.319 50.0826 99.6392 49.1956 100.384 48.8459Z" fill="black"/>
<path d="M72.084 48.8459C74.9299 47.5095 78.9955 47.5536 82.5655 48.7862C83.3431 49.0547 83.7557 49.9027 83.4873 50.6803C83.2188 51.4578 82.3708 51.8705 81.5932 51.602C78.7039 50.6043 75.4233 50.5688 73.3502 51.5423C72.6056 51.892 71.7186 51.5718 71.3689 50.8272C71.0192 50.0826 71.3394 49.1956 72.084 48.8459Z" fill="black"/>
<path d="M87.6628 48.5985C90.4951 47.2499 93.2247 47.118 95.8819 48.564L95.9854 48.6211L95.2577 49.9207C93.0637 48.692 90.8338 48.7675 88.4117 49.8922L88.3031 49.9433L87.6628 48.5985Z" fill="black"/>
<path d="M96.0192 53.9743L95.6621 49.3887C95.6621 49.3887 97.8861 44.3914 106.823 43.3369C115.761 42.2821 119.712 47.778 119.712 47.778L119 54.3969C118.549 58.5867 114.956 61.7278 110.743 61.6144L103.863 61.4293C99.7258 61.318 96.3404 58.1005 96.0192 53.9743Z" fill="white" fill-opacity="0.4"/>
<path d="M106.522 42.2913C109.384 41.9211 112.072 42.1268 114.555 42.7861C116.4 43.276 117.988 43.9742 119.296 44.7594C120.161 45.2788 120.623 46.2453 120.555 47.265L120.55 47.3362L120.33 49.7836L118.635 49.6313L118.855 47.1839C118.892 46.7654 118.724 46.4012 118.42 46.2188C117.243 45.5122 115.8 44.878 114.118 44.4313C111.843 43.8272 109.377 43.6384 106.741 43.9795C102.041 44.5872 98.7786 46.0483 96.7285 47.7729C96.5305 47.9394 96.432 48.2174 96.4661 48.5435L96.473 48.5983L96.8634 51.2444L95.1794 51.4929L94.789 48.8468C94.6551 47.9399 94.9474 47.0467 95.6327 46.4703C97.9292 44.5384 101.496 42.9414 106.522 42.2913Z" fill="black"/>
<path d="M88.2082 53.8045L88.5132 49.4362C88.5132 49.4362 86.2913 44.5493 77.5118 43.5843C68.7322 42.6196 64.8975 48.0442 64.8975 48.0442L65.6326 54.3969C66.1169 58.5829 69.7352 61.6952 73.9467 61.5482L80.4244 61.322C84.5606 61.1775 87.9199 57.9331 88.2082 53.8045Z" fill="white" fill-opacity="0.4"/>
<path d="M69.9336 43.0841C72.3625 42.4209 74.9945 42.1998 77.8011 42.54C82.6873 43.1321 86.1848 44.6475 88.4686 46.5095C89.1788 47.0886 89.4816 48.0021 89.3382 48.9235L89.326 48.9962L88.8932 51.3868L87.2182 51.0835L87.651 48.6929C87.7169 48.3292 87.616 48.0107 87.393 47.8288C85.3556 46.1677 82.1591 44.7828 77.5963 44.2298C75.015 43.9169 72.604 44.1195 70.382 44.7263C68.7371 45.1754 67.3269 45.8069 66.1762 46.5084C65.8877 46.6843 65.7238 47.0254 65.7459 47.421L65.7498 47.4729L65.9877 49.9536L64.2933 50.1161L64.0554 47.6353C63.9553 46.5916 64.4104 45.5912 65.2902 45.0549C66.5711 44.274 68.1263 43.5777 69.9336 43.0841Z" fill="black"/>
<path d="M105.454 19.6629C95.3253 14.0456 90.9846 13.5986 79.069 22.2163C67.047 19.131 77.7923 11.2581 82.4734 8.91752C87.1546 6.57695 97.6871 5.72583 106.517 10.1942C115.348 14.6625 118.114 26.6846 105.454 19.6629Z" fill="#311E1C"/>
<path d="M73.261 29.9952C78.9927 23.2802 89.8444 20.6205 92.6105 18.7054C93.6746 18.1902 93.6744 10.3974 91.1211 8.38566C87.6102 5.61954 75.1626 11.0454 69.6304 16.2585C64.0981 21.4716 58.6126 32.3207 56.119 47.9627C54.9487 55.3035 54.0976 78.6028 54.0976 86.9012C54.0976 95.1996 55.0551 105.945 54.0976 115.414C53.4443 121.874 52.503 133.603 52.5032 149.455C52.5032 153.075 62.6659 154.17 63.247 151.264C64.0981 147.008 63.3547 122.967 64.206 115.414C65.1444 107.088 66.6515 101.264 65.4812 93.4974C64.3111 85.7309 60.8001 77.9645 62.1831 73.3897C63.5662 68.815 63.0342 57.6441 63.247 50.7288C63.4598 43.8135 67.449 36.8045 73.261 29.9952Z" fill="#311E1C"/>
<path d="M65.3763 118.815C64.0145 112.347 61.3691 82.7493 60.908 68.9187C61.1207 68.9896 63.057 69.4719 63.5677 69.557C64.0784 69.6421 64.4897 69.5926 64.6316 69.557C65.2344 72.2168 65.4985 76.1847 67.5041 80.196C69.0999 83.3877 71.9725 86.5438 73.3555 87.9624C74.5613 92.6791 77.143 103.729 77.8239 110.198C78.675 118.283 77.8239 143.604 75.9089 143.604C71.4633 143.604 68.3352 144.242 67.5041 141.583C65.9083 136.476 67.0785 126.901 65.3763 118.815Z" fill="#311E1C"/>
<path d="M110.699 27.4268C104.411 21.391 94.3142 20.086 93.3567 18.5966C92.3636 15.1921 92.1681 9.47081 96.5486 7.95764C102.4 5.93632 117.826 14.1281 122.933 27.4268C126.74 37.3399 129.317 60.6203 129.21 62.7481C129.104 64.8759 125.487 99.1333 124.955 104.453C124.423 109.772 124.635 113.709 124.955 124.88C125.274 136.05 125.274 145.514 122.933 146.157C118.678 147.328 105.379 145.625 103.57 145.306C101.762 144.987 102.932 137.604 102.932 133.497C102.932 127.858 106.762 108.815 108.783 101.474C110.337 95.8324 118.039 77.8554 118.571 76.3659C118.997 75.1744 119.635 71.1884 119.848 69.4506L119.853 69.4523C120.1 69.5227 120.352 69.5947 122.295 68.9187C124.742 68.0675 127.402 65.195 128.04 62.4289C128.678 59.6628 128.146 56.8967 126.657 54.3433C125.465 52.3006 122.082 50.9744 121.125 50.7261C121.125 48.3855 121.018 45.513 120.699 43.9171C119.894 39.8901 116.018 32.5335 110.699 27.4268Z" fill="#311E1C"/>
</g>
<rect x="135.5" y="4" width="56" height="32" rx="6" fill="white"/>
<path d="M165 14H176.5M165 20H173.25H177.375H181.5M165 26H173.5M155 16.5L148.5 23L145 19.5" stroke="#A07BFC" stroke-width="2"/>
<rect x="0.5" y="20" width="45" height="45" rx="22.5" fill="white"/>
<path d="M21.4682 39.1416L23 34.4271L24.5318 39.1416C24.6992 39.6566 25.1791 40.0053 25.7207 40.0053H30.6778L26.6674 42.9191C26.2293 43.2374 26.046 43.8016 26.2133 44.3166L27.7452 49.0312L23.7347 46.1174C23.2966 45.7991 22.7034 45.7991 22.2653 46.1174L18.2548 49.0312L19.7867 44.3166C19.954 43.8016 19.7707 43.2374 19.3326 42.9191L15.3222 40.0053H20.2793C20.8209 40.0053 21.3008 39.6566 21.4682 39.1416Z" stroke="#A07BFC" stroke-width="1.5"/>
</svg>
