<svg width="62" height="62" viewBox="0 0 62 62" fill="none" xmlns="http://www.w3.org/2000/svg">
<rect width="62" height="62" rx="20" fill="white"/>
<g clip-path="url(#clip0_734_393)">
<path d="M50.6016 23.0001C50.6016 23.0001 50.2109 20.2423 49.0078 19.0314C47.4844 17.4376 45.7812 17.4298 45 17.3361C39.4063 16.9298 31.0078 16.9298 31.0078 16.9298H30.9922C30.9922 16.9298 22.5938 16.9298 17 17.3361C16.2188 17.4298 14.5156 17.4376 12.9922 19.0314C11.7891 20.2423 11.4062 23.0001 11.4062 23.0001C11.4062 23.0001 11 26.2423 11 29.4767V32.5079C11 35.7423 11.3984 38.9845 11.3984 38.9845C11.3984 38.9845 11.7891 41.7423 12.9844 42.9532C14.5078 44.547 16.5078 44.4923 17.3984 44.6642C20.6016 44.9689 31 45.0626 31 45.0626C31 45.0626 39.4063 45.047 45 44.6486C45.7812 44.5548 47.4844 44.547 49.0078 42.9532C50.2109 41.7423 50.6016 38.9845 50.6016 38.9845C50.6016 38.9845 51 35.7501 51 32.5079V29.4767C51 26.2423 50.6016 23.0001 50.6016 23.0001ZM26.8672 36.1876V24.9454L37.6719 30.5861L26.8672 36.1876Z" fill="#121212"/>
</g>
<defs>
<clipPath id="clip0_734_393">
<rect width="40" height="28" fill="white" transform="translate(11 17)"/>
</clipPath>
</defs>
</svg>
