<svg width="28" height="29" viewBox="0 0 28 29" fill="none" xmlns="http://www.w3.org/2000/svg">
<g id="Calendar / Calendar_Event">
<path id="Vector" d="M4.66663 9.83337H23.3333M4.66663 9.83337V20.1003C4.66663 21.4071 4.66663 22.0601 4.92094 22.5592C5.14465 22.9983 5.50134 23.3556 5.94039 23.5793C6.43903 23.8334 7.09212 23.8334 8.39635 23.8334H19.6036C20.9078 23.8334 21.5599 23.8334 22.0586 23.5793C22.4976 23.3556 22.8555 22.9983 23.0792 22.5592C23.3333 22.0606 23.3333 21.4084 23.3333 20.1042V9.83337M4.66663 9.83337V8.90027C4.66663 7.59348 4.66663 6.9396 4.92094 6.44047C5.14465 6.00143 5.50134 5.64473 5.94039 5.42103C6.43952 5.16671 7.0934 5.16671 8.40019 5.16671H9.33329M23.3333 9.83337V8.89644C23.3333 7.5922 23.3333 6.93911 23.0792 6.44047C22.8555 6.00143 22.4976 5.64473 22.0586 5.42103C21.5595 5.16671 20.907 5.16671 19.6002 5.16671H18.6666M9.33329 5.16671H18.6666M9.33329 5.16671V2.83337M18.6666 5.16671V2.83337M13.7083 19.1667C13.8694 19.1667 14 19.0361 14 18.875V14.7917C14 14.6306 13.8694 14.5 13.7083 14.5H9.62496C9.46388 14.5 9.33329 14.6306 9.33329 14.7917V18.875C9.33329 19.0361 9.46388 19.1667 9.62496 19.1667H13.7083Z" stroke="#121212" stroke-width="2" stroke-linecap="round" stroke-linejoin="round"/>
</g>
</svg>
