<svg width="28" height="29" viewBox="0 0 28 29" fill="none" xmlns="http://www.w3.org/2000/svg">
<g id="Communication / Mail">
<path id="Vector" d="M4.66667 7.50004L11.7922 12.881L11.7946 12.883C12.5858 13.4632 12.9817 13.7535 13.4152 13.8656C13.7984 13.9647 14.2013 13.9647 14.5845 13.8656C15.0184 13.7534 15.4154 13.4623 16.208 12.881C16.208 12.881 20.7784 9.37364 23.3333 7.50004M3.5 18.9336V10.0669C3.5 8.76015 3.5 8.10626 3.75432 7.60714C3.97802 7.16809 4.33472 6.8114 4.77376 6.58769C5.27289 6.33337 5.92677 6.33337 7.23356 6.33337H20.7669C22.0737 6.33337 22.7262 6.33337 23.2253 6.58769C23.6643 6.8114 24.0222 7.16809 24.2459 7.60714C24.5 8.10578 24.5 8.75887 24.5 10.0631V18.9375C24.5 20.2418 24.5 20.8939 24.2459 21.3926C24.0222 21.8316 23.6643 22.1889 23.2253 22.4126C22.7267 22.6667 22.0745 22.6667 20.7703 22.6667H7.22973C5.92549 22.6667 5.2724 22.6667 4.77376 22.4126C4.33472 22.1889 3.97802 21.8316 3.75432 21.3926C3.5 20.8934 3.5 20.2404 3.5 18.9336Z" stroke="#121212" stroke-width="2" stroke-linecap="round" stroke-linejoin="round"/>
</g>
</svg>
