<svg width="22" height="22" viewBox="0 0 22 22" fill="none" xmlns="http://www.w3.org/2000/svg">
<g clip-path="url(#clip0_634_4927)">
<path d="M10.8 1.94484C13.6856 1.94484 14.0273 1.9575 15.1622 2.00812C16.2169 2.05453 16.7864 2.23172 17.1661 2.37937C17.6681 2.57344 18.0309 2.80969 18.4064 3.18516C18.7861 3.56484 19.0181 3.92344 19.2122 4.42547C19.3598 4.80516 19.537 5.37891 19.5834 6.42937C19.6341 7.56844 19.6467 7.91016 19.6467 10.7916C19.6467 13.6772 19.6341 14.0189 19.5834 15.1537C19.537 16.2084 19.3598 16.778 19.2122 17.1577C19.0181 17.6597 18.7819 18.0225 18.4064 18.398C18.0267 18.7777 17.6681 19.0097 17.1661 19.2037C16.7864 19.3514 16.2127 19.5286 15.1622 19.575C14.0231 19.6256 13.6814 19.6383 10.8 19.6383C7.91437 19.6383 7.57266 19.6256 6.43781 19.575C5.38313 19.5286 4.81359 19.3514 4.43391 19.2037C3.93187 19.0097 3.56906 18.7734 3.19359 18.398C2.81391 18.0183 2.58187 17.6597 2.38781 17.1577C2.24016 16.778 2.06297 16.2042 2.01656 15.1537C1.96594 14.0147 1.95328 13.673 1.95328 10.7916C1.95328 7.90594 1.96594 7.56422 2.01656 6.42937C2.06297 5.37469 2.24016 4.80516 2.38781 4.42547C2.58187 3.92344 2.81812 3.56062 3.19359 3.18516C3.57328 2.80547 3.93187 2.57344 4.43391 2.37937C4.81359 2.23172 5.38734 2.05453 6.43781 2.00812C7.57266 1.9575 7.91437 1.94484 10.8 1.94484ZM10.8 0C7.86797 0 7.50094 0.0126562 6.34922 0.0632812C5.20172 0.113906 4.41281 0.299531 3.72937 0.565312C3.01641 0.84375 2.41313 1.21078 1.81406 1.81406C1.21078 2.41312 0.84375 3.01641 0.565312 3.72516C0.299531 4.41281 0.113906 5.1975 0.0632813 6.345C0.0126563 7.50094 0 7.86797 0 10.8C0 13.732 0.0126563 14.0991 0.0632813 15.2508C0.113906 16.3983 0.299531 17.1872 0.565312 17.8706C0.84375 18.5836 1.21078 19.1869 1.81406 19.7859C2.41313 20.385 3.01641 20.7562 3.72516 21.0305C4.41281 21.2962 5.1975 21.4819 6.345 21.5325C7.49672 21.5831 7.86375 21.5958 10.7958 21.5958C13.7278 21.5958 14.0948 21.5831 15.2466 21.5325C16.3941 21.4819 17.183 21.2962 17.8664 21.0305C18.5752 20.7562 19.1784 20.385 19.7775 19.7859C20.3766 19.1869 20.7478 18.5836 21.022 17.8748C21.2878 17.1872 21.4734 16.4025 21.5241 15.255C21.5747 14.1033 21.5873 13.7362 21.5873 10.8042C21.5873 7.87219 21.5747 7.50516 21.5241 6.35344C21.4734 5.20594 21.2878 4.41703 21.022 3.73359C20.7562 3.01641 20.3892 2.41312 19.7859 1.81406C19.1869 1.215 18.5836 0.84375 17.8748 0.569531C17.1872 0.30375 16.4025 0.118125 15.255 0.0675C14.0991 0.0126563 13.732 0 10.8 0Z" fill="#121212"/>
<path d="M10.8 5.25244C7.73716 5.25244 5.25232 7.73729 5.25232 10.8001C5.25232 13.8629 7.73716 16.3478 10.8 16.3478C13.8628 16.3478 16.3476 13.8629 16.3476 10.8001C16.3476 7.73729 13.8628 5.25244 10.8 5.25244ZM10.8 14.3987C8.81294 14.3987 7.20138 12.7871 7.20138 10.8001C7.20138 8.81307 8.81294 7.2015 10.8 7.2015C12.787 7.2015 14.3986 8.81307 14.3986 10.8001C14.3986 12.7871 12.787 14.3987 10.8 14.3987Z" fill="#121212"/>
<path d="M17.8622 5.03295C17.8622 5.75014 17.28 6.32811 16.567 6.32811C15.8498 6.32811 15.2719 5.74592 15.2719 5.03295C15.2719 4.31576 15.854 3.73779 16.567 3.73779C17.28 3.73779 17.8622 4.31998 17.8622 5.03295Z" fill="#121212"/>
</g>
<defs>
<clipPath id="clip0_634_4927">
<rect width="21.6" height="21.6" fill="white"/>
</clipPath>
</defs>
</svg>
