<svg width="36" height="36" viewBox="0 0 36 36" fill="none" xmlns="http://www.w3.org/2000/svg">
<circle cx="18" cy="18" r="18" fill="#121212"/>
<path d="M10.0889 13.5186C10.074 12.3897 10.1246 11.2739 9.98929 10.1637C9.97379 10.0365 9.94079 9.90985 9.90156 9.78752C9.80816 9.49624 9.6745 9.40115 9.36707 9.39324C9.29704 9.39144 9.22284 9.40878 9.15799 9.39069C9.1 9.37451 9.05226 9.32164 9 9.28495C9.04222 9.25309 9.07981 9.20824 9.12737 9.19131C9.81187 8.94764 10.5069 8.73059 11.1809 8.46117C12.0406 8.11755 12.8326 7.64757 13.5528 7.06074C13.609 7.01494 13.7145 6.98577 13.7773 7.00713C13.8189 7.02131 13.8511 7.14242 13.8429 7.21031C13.7998 7.56756 13.739 7.92265 13.6914 8.27943C13.6609 8.50767 13.6363 8.7371 13.6206 8.96678C13.6034 9.21797 13.5995 9.47006 13.5915 9.73662C13.579 10.3587 13.558 10.9659 13.5524 11.5732C13.5457 12.3007 13.5468 13.0284 13.5571 13.7559C13.5594 13.9209 13.6132 14.0851 13.6433 14.2496C13.6605 14.2514 13.6776 14.2533 13.6947 14.2551C13.7423 14.181 13.7918 14.108 13.8373 14.0327C14.1684 13.4843 14.5548 12.9832 15.0634 12.5842C15.7935 12.0113 16.6196 11.8129 17.5285 11.9681C18.9454 12.2101 19.9208 13.0346 20.516 14.3119C20.7278 14.7664 20.8538 15.2607 21.025 15.7539C21.2465 15.6777 21.5069 15.5951 21.7622 15.499C22.8885 15.0747 23.9584 14.5474 24.8965 13.7792C24.9452 13.7393 25.0483 13.7148 25.0968 13.7398C25.1434 13.7638 25.1796 13.8644 25.1731 13.9264C25.0952 14.6637 24.9942 15.3989 24.9293 16.1372C24.8903 16.5805 24.896 17.0283 24.8954 17.4741C24.8914 20.1907 24.8871 22.9074 24.896 25.6241C24.897 25.921 24.9532 26.2254 25.0336 26.5124C25.1373 26.8822 25.4346 27.0057 25.8203 26.9367C26.2523 26.8595 26.4888 26.5996 26.6133 26.2035C26.7828 25.6643 26.8405 25.1084 26.8697 24.5475C26.8736 24.4732 26.9012 24.4001 26.9178 24.3264C26.9426 24.3294 26.9675 24.3324 26.9923 24.3354C26.9923 24.5564 27.0117 24.7795 26.9889 24.9982C26.8939 25.9097 26.6429 26.7735 26.1372 27.548C25.7514 28.139 25.2642 28.6153 24.5759 28.8465C23.4034 29.2404 21.8271 28.6234 21.5548 27.03C21.5439 26.9663 21.5429 26.8962 21.5137 26.8417C21.4835 26.785 21.4312 26.7194 21.3759 26.7044C21.3413 26.6949 21.2693 26.7628 21.238 26.8113C21.0833 27.051 20.9502 27.3057 20.7844 27.5371C20.2738 28.2498 19.6154 28.7611 18.7366 28.9311C17.7563 29.1207 16.8456 28.9143 16.0178 28.3717C14.9636 27.6807 14.3651 26.6748 14.1085 25.4631C13.867 24.3226 13.9193 23.1929 14.3299 22.0908C14.3409 22.0613 14.3475 22.0302 14.3524 22.0131C13.6461 21.6864 12.9481 21.3614 12.2482 21.0408C11.9789 20.9175 11.6881 20.9239 11.4048 20.9513C11.2854 20.9628 11.1567 21.0377 11.0623 21.1187C10.7513 21.3852 10.4573 21.6714 10.1493 21.9413C10.071 22.0099 9.96465 22.0464 9.8712 22.0976C9.85981 21.9957 9.83173 21.8924 9.83964 21.792C9.90772 20.928 9.99054 20.0651 10.0533 19.2007C10.1902 17.3128 10.1141 15.4228 10.0889 13.5186ZM21.3954 19.411C21.4014 19.4025 21.4074 19.3941 21.4151 19.356C21.4069 18.7372 21.4176 18.1174 21.3831 17.5C21.3637 17.1548 21.2751 16.8125 21.2045 16.4717C21.187 16.3875 21.1178 16.3139 21.0724 16.2355C21.0581 16.2408 21.0438 16.2461 21.0295 16.2514C21.1068 17.1905 21.0014 18.1038 20.6433 18.9649C20.9038 19.1193 21.144 19.2616 21.3954 19.411ZM13.5541 17.6582C13.5639 17.8248 13.572 17.9915 13.5838 18.1579C13.6367 18.8984 13.7757 19.6195 14.086 20.2993C14.2449 20.6475 14.4443 20.9704 14.7343 21.2506C15.5165 19.978 16.5983 19.1189 18.066 18.7435C18.0398 18.5798 18.0201 18.4211 17.9885 18.2648C17.7442 17.0551 17.3374 15.9104 16.6051 14.902C16.2832 14.4588 15.9249 14.04 15.4057 13.8222C14.7015 13.5267 14.17 13.6816 13.8458 14.3875C13.6561 14.8003 13.5825 15.2448 13.561 15.6878C13.5298 16.3326 13.5534 16.98 13.5541 17.6582ZM19.6966 20.4958C18.9632 21.3373 18.0567 21.897 16.9532 22.1463C17.2116 23.6992 17.7647 25.1008 18.7589 26.3093C19.0413 26.6527 19.3711 26.9465 19.7968 27.1134C20.3838 27.3436 20.9496 27.1134 21.2049 26.5397C21.3833 26.1387 21.4421 25.71 21.4532 25.2819C21.4737 24.4916 21.4676 23.7026 21.3681 22.9128C21.2553 22.0172 21.0535 21.1547 20.6416 20.3491C20.535 20.1406 20.3941 19.9497 20.268 19.7492C20.0705 20.008 19.891 20.2431 19.6966 20.4958ZM18.0918 19.1755C18.0863 19.13 18.0808 19.0846 18.073 19.0194C17.6828 19.1187 17.3872 19.3181 17.1991 19.6536C16.8064 20.3545 16.8696 21.1117 16.9258 21.8794C17.4895 21.7652 17.8231 21.4308 17.9915 20.9132C18.174 20.3519 18.1251 19.7763 18.0918 19.1755Z" fill="#F1EAF6"/>
</svg>
