<svg width="22" height="22" viewBox="0 0 22 22" fill="none" xmlns="http://www.w3.org/2000/svg">
<g clip-path="url(#clip0_634_4923)">
<path d="M11 0C5.03464 0 0.199951 4.83469 0.199951 10.8C0.199951 15.3773 3.04761 19.2839 7.06386 20.8575C6.97104 20.0011 6.88245 18.6933 7.10183 17.7609C7.30011 16.9172 8.36745 12.3947 8.36745 12.3947C8.36745 12.3947 8.04261 11.7492 8.04261 10.7916C8.04261 9.28969 8.91167 8.1675 9.99589 8.1675C10.9156 8.1675 11.3628 8.85937 11.3628 9.69047C11.3628 10.6186 10.7721 12.0023 10.4684 13.2848C10.2153 14.3606 11.0084 15.2381 12.0673 15.2381C13.9868 15.2381 15.4634 13.2131 15.4634 10.2937C15.4634 7.70766 13.6071 5.89781 10.9535 5.89781C7.88229 5.89781 6.07667 8.20125 6.07667 10.5848C6.07667 11.513 6.43526 12.5086 6.88245 13.0486C6.97104 13.1541 6.9837 13.2511 6.95839 13.3566C6.87823 13.6983 6.69261 14.4323 6.65886 14.58C6.61245 14.7783 6.50276 14.8205 6.29604 14.7234C4.94604 14.0948 4.10229 12.1247 4.10229 10.5384C4.10229 7.12969 6.5787 4.00359 11.2362 4.00359C14.9825 4.00359 17.8934 6.67406 17.8934 10.2431C17.8934 13.9641 15.5478 16.9594 12.2909 16.9594C11.1982 16.9594 10.1689 16.3898 9.81448 15.7191C9.81448 15.7191 9.27448 17.782 9.1437 18.2883C8.89901 19.2248 8.24089 20.4019 7.80214 21.1191C8.81464 21.4312 9.8862 21.6 11 21.6C16.9653 21.6 21.7999 16.7653 21.7999 10.8C21.7999 4.83469 16.9653 0 11 0Z" fill="#121212"/>
</g>
<defs>
<clipPath id="clip0_634_4923">
<rect width="21.6" height="21.6" fill="white" transform="translate(0.199951)"/>
</clipPath>
</defs>
</svg>
