<svg width="22" height="22" viewBox="0 0 22 22" fill="none" xmlns="http://www.w3.org/2000/svg">
<g clip-path="url(#clip0_634_4919)">
<path d="M15.7652 0H12.125V14.713C12.125 16.4661 10.7249 17.9061 8.98259 17.9061C7.24025 17.9061 5.84017 16.4661 5.84017 14.713C5.84017 12.9913 7.20914 11.5826 8.88927 11.52V7.8261C5.1868 7.88868 2.19995 10.9252 2.19995 14.713C2.19995 18.5322 5.24902 21.6 9.01371 21.6C12.7783 21.6 15.8274 18.5009 15.8274 14.713V7.16868C17.1964 8.17044 18.8765 8.76522 20.65 8.79654V5.10261C17.912 5.0087 15.7652 2.75478 15.7652 0Z" fill="#121212"/>
</g>
<defs>
<clipPath id="clip0_634_4919">
<rect width="21.6" height="21.6" fill="white" transform="translate(0.400024)"/>
</clipPath>
</defs>
</svg>
