<svg width="192" height="193" viewBox="0 0 192 193" fill="none" xmlns="http://www.w3.org/2000/svg">
<circle cx="96" cy="96.5001" r="96" fill="#F4F4F4"/>
<circle cx="96" cy="97" r="89" fill="#A07BFC"/>
<mask id="mask0_864_85" style="mask-type:alpha" maskUnits="userSpaceOnUse" x="7" y="8" width="178" height="178">
<circle cx="96" cy="97" r="89" fill="#A07BFC"/>
</mask>
<g mask="url(#mask0_864_85)">
<path d="M143.194 101.752C143.194 99.2857 143.453 88.8248 143.194 84.2417L137.097 85.0199L122.181 97.6016C119.414 104.001 106.565 126.89 107.395 130.418C108.432 134.828 125.179 138.392 130.612 142.221C152.144 157.397 147.863 129.899 146.955 124.451C146.047 119.003 143.194 109.016 143.194 101.752Z" fill="#17100F"/>
<path fill-rule="evenodd" clip-rule="evenodd" d="M53.566 75.9497C53.566 75.9497 49.8357 118.031 46.8216 127.337C43.8074 136.644 36.8837 156.025 38.3362 167.849C39.7887 179.674 40.0771 180.872 46.8216 177.111C53.566 173.351 132.687 118.587 132.687 118.587L53.566 75.9497Z" fill="#17100F"/>
<rect x="87.29" y="107.589" width="21.0126" height="30.0922" rx="10.125" fill="#8D6956"/>
<path d="M80.8049 207.939V136.644H116.085V207.939C116.085 207.939 103.718 210.058 98.4452 210.058C93.1726 210.058 80.8049 207.939 80.8049 207.939Z" fill="#E7D6D3"/>
<path d="M97.148 131.974C89.573 131.974 84.8257 128.342 83.3989 126.526L79.2483 135.217C81.9722 138.157 89.3655 144.037 97.148 144.037C104.93 144.037 112.497 140.146 115.307 138.2L112.453 126.526C110.508 128.342 104.723 131.974 97.148 131.974Z" fill="#E6CECB"/>
<rect x="49.5266" y="126.223" width="44.8726" height="92.7926" rx="21.622" transform="rotate(8.5 49.5266 126.223)" fill="#6D41DA"/>
<rect x="32.5537" y="201.885" width="27.5341" height="53.9851" rx="13.2674" transform="rotate(-45 32.5537 201.885)" fill="#67513B"/>
<path d="M51.9792 265.351L63.1207 126.975L87.1604 125.229L95.5914 174.388C93.3631 203.802 90.3056 270.03 90.3056 273.596C90.3056 277.161 63.1207 269.065 51.9792 265.351Z" fill="#6D41DA"/>
<path d="M95.7212 174.129L87.0308 124.581C80.8048 123.673 72.8926 124.019 69.1311 124.581L91.3111 173.351L94.1647 194.882L95.7212 174.129Z" fill="#50319E"/>
<path d="M144.676 263.791L133.596 126.915L108.303 125.878L101.169 175.037C103.397 204.45 106.349 268.471 106.349 272.036C106.349 275.601 133.534 267.505 144.676 263.791Z" fill="#6D41DA"/>
<path d="M101.169 175.296L108.303 125.489C114.399 124.192 122.268 124.192 125.295 124.192L107.265 177.502L103.633 217.322L101.169 175.296Z" fill="#50319E"/>
<rect width="23.4882" height="65.3747" rx="11.3179" transform="matrix(-0.981627 0.190809 0.190809 0.981627 147.232 125.489)" fill="#6D41DA"/>
<path fill-rule="evenodd" clip-rule="evenodd" d="M132.77 216.81L137.699 179.454L156.731 181.965L151.802 219.321L151.802 219.321C151.109 224.576 146.286 228.275 141.031 227.581C135.775 226.888 132.077 222.065 132.77 216.81L132.77 216.81Z" fill="#F6DDD6"/>
<rect width="23.4882" height="46.2771" rx="11.3179" transform="matrix(-0.998135 -0.0610485 -0.0610485 0.998135 158.879 172.061)" fill="#67513B"/>
<path d="M87.7434 182.236C89.1587 182.236 90.306 181.089 90.306 179.674C90.306 178.259 89.1587 177.111 87.7434 177.111C86.3282 177.111 85.1809 178.259 85.1809 179.674C85.1809 181.089 86.3282 182.236 87.7434 182.236Z" fill="#50319E"/>
<path d="M131.91 92.8023C137.641 92.8023 142.286 87.634 142.286 81.2583C142.286 74.8827 137.641 69.7144 131.91 69.7144C126.179 69.7144 121.533 74.8827 121.533 81.2583C121.533 87.634 126.179 92.8023 131.91 92.8023Z" fill="#60473B"/>
<path d="M63.943 92.8023C58.2122 92.8023 53.5664 87.634 53.5664 81.2583C53.5664 74.8827 58.2122 69.7144 63.943 69.7144C69.6738 69.7144 74.3196 74.8827 74.3196 81.2583C74.3196 87.634 69.6738 92.8023 63.943 92.8023Z" fill="#60473B"/>
<path d="M62.3384 55.4113C61.5739 35.2068 77.6945 18.3502 97.9136 18.3502C118.337 18.3502 134.464 35.5306 133.692 55.9394C133.449 62.3493 133.317 67.7294 133.425 70.1702C133.616 74.4755 131.528 87.179 129.442 98.5679C127.147 111.096 117.416 120.866 104.964 123.541C100.576 124.483 96.0351 124.494 91.643 123.576C78.8185 120.896 68.85 110.72 66.6807 97.7995C64.793 86.5543 62.885 74.2612 62.8224 70.1702C62.7851 67.7257 62.5916 62.0974 62.3384 55.4113Z" fill="#8D6956"/>
<path fill-rule="evenodd" clip-rule="evenodd" d="M84.0042 91.251V96.3874C84.0042 104.294 90.3933 110.702 98.2717 110.702C106.153 110.702 112.539 104.294 112.539 96.3874V91.251H84.0042Z" fill="#393939"/>
<mask id="mask1_864_85" style="mask-type:luminance" maskUnits="userSpaceOnUse" x="84" y="91" width="29" height="20">
<path fill-rule="evenodd" clip-rule="evenodd" d="M84.0275 91.2458C84.0119 91.5107 84.0042 91.7779 84.0042 92.0451V97.0482C84.0042 104.59 90.3933 110.702 98.2717 110.702C106.153 110.702 112.539 104.59 112.539 97.0482V92.0451C112.539 91.7779 112.531 91.5107 112.516 91.2458H84.0275Z" fill="white"/>
</mask>
<g mask="url(#mask1_864_85)">
<path d="M98.2715 115.292C103.024 115.292 106.876 113.188 106.876 110.593C106.876 107.998 103.024 105.894 98.2715 105.894C93.5196 105.894 89.6672 107.998 89.6672 110.593C89.6672 113.188 93.5196 115.292 98.2715 115.292Z" fill="#FF6C6C"/>
</g>
<rect x="84.0042" y="91.251" width="28.5357" height="5.90082" fill="white"/>
<path d="M76.7875 54.1709C80.7634 53.5082 85.1552 53.874 89.4946 55.4056C90.3052 55.6917 90.7304 56.5808 90.4443 57.3914C90.1582 58.202 89.2692 58.6272 88.4585 58.3411C84.6194 56.9861 80.7603 56.6646 77.2993 57.2416C76.277 57.4119 75.4334 57.6863 74.7496 58.0306C74.3621 58.2257 74.0578 58.427 73.8286 58.6187C73.7726 58.6655 73.7271 58.7069 73.6914 58.7418L73.6604 58.7728C73.6606 58.7721 73.6656 58.766 73.6754 58.7538C73.1383 59.425 72.1587 59.5337 71.4876 58.9966C70.8164 58.4594 70.7077 57.4799 71.2449 56.8088C71.3652 56.6584 71.5583 56.4593 71.8314 56.2308C72.2417 55.8877 72.7459 55.5542 73.3498 55.2501C74.3145 54.7644 75.4576 54.3925 76.7875 54.1709Z" fill="#62360D"/>
<path d="M105.343 55.2804C108.965 53.6933 114.371 53.2927 118.23 53.9581C119.476 54.1729 120.615 54.5807 121.638 55.1257C122.188 55.4191 122.673 55.7352 123.091 56.055L123.217 56.1529C123.416 56.3111 123.565 56.4433 123.663 56.5389C124.276 57.1408 124.286 58.1262 123.684 58.74C123.098 59.3381 122.147 59.3627 121.531 58.8068L121.469 58.7489L121.439 58.7226C121.374 58.6659 121.294 58.5997 121.198 58.5264C120.911 58.3067 120.568 58.0833 120.174 57.8732C119.432 57.4779 118.605 57.1817 117.701 57.0258C114.402 56.457 109.603 56.8127 106.593 58.1316C105.806 58.4767 104.888 58.1181 104.543 57.3308C104.198 56.5435 104.556 55.6255 105.343 55.2804Z" fill="#62360D"/>
<path d="M96.3517 73.1609L100.021 75.6072C98.774 77.4778 97.7973 80.2858 97.7973 82.3286C97.7973 84.2984 98.5086 85.1263 100.686 85.1493L100.781 85.1498V89.5598C95.9702 89.5598 93.3872 86.654 93.3872 82.3286C93.3872 79.3985 94.6062 75.8416 96.261 73.2986L96.3517 73.1609Z" fill="#60473B"/>
<path d="M108.05 67.5519C111.52 65.9226 116.476 65.9763 120.829 67.4791C121.777 67.8065 122.28 68.8403 121.953 69.7883C121.625 70.7363 120.592 71.2394 119.644 70.9121C116.121 69.6957 112.121 69.6524 109.594 70.8393C108.686 71.2656 107.605 70.8753 107.178 69.9675C106.752 69.0597 107.142 67.9782 108.05 67.5519Z" fill="black"/>
<path d="M73.5476 67.5519C77.0173 65.9226 81.974 65.9763 86.3265 67.4791C87.2744 67.8065 87.7776 68.8403 87.4503 69.7883C87.1229 70.7363 86.0891 71.2394 85.1411 70.9121C81.6184 69.6957 77.6189 69.6524 75.0914 70.8393C74.1836 71.2656 73.1021 70.8753 72.6758 69.9675C72.2495 69.0597 72.6398 67.9782 73.5476 67.5519Z" fill="black"/>
<path d="M92.541 67.2502C95.9941 65.6061 99.322 65.4453 102.562 67.2082L102.688 67.2778L101.8 68.8622C99.1256 67.3643 96.407 67.4563 93.454 68.8275L93.3217 68.8898L92.541 67.2502Z" fill="black"/>
<path d="M102.729 73.8043L102.293 68.2136C102.293 68.2136 105.005 62.121 115.901 60.8353C126.798 59.5494 131.615 66.2499 131.615 66.2499L130.746 74.3195C130.197 79.4276 125.816 83.2571 120.68 83.1189L112.292 82.8932C107.248 82.7575 103.12 78.8349 102.729 73.8043Z" fill="white" fill-opacity="0.4"/>
<path d="M115.534 59.5606C119.023 59.1092 122.3 59.36 125.328 60.1639C127.577 60.7611 129.513 61.6124 131.108 62.5697C132.162 63.2029 132.725 64.3813 132.643 65.6244L132.636 65.7113L132.368 68.6951L130.301 68.5094L130.569 65.5255C130.615 65.0153 130.41 64.5713 130.039 64.3489C128.604 63.4874 126.846 62.7142 124.795 62.1697C122.021 61.4331 119.015 61.203 115.8 61.6188C110.071 62.3598 106.093 64.1411 103.594 66.2436C103.352 66.4466 103.232 66.7856 103.274 67.1831L103.282 67.2499L103.758 70.476L101.705 70.779L101.229 67.5529C101.066 66.4473 101.422 65.3583 102.258 64.6555C105.058 62.3002 109.405 60.3532 115.534 59.5606Z" fill="black"/>
<path d="M93.2059 73.5973L93.5776 68.2715C93.5776 68.2715 90.8688 62.3135 80.1651 61.137C69.4611 59.9609 64.7859 66.5744 64.7859 66.5744L65.6822 74.3195C66.2726 79.423 70.684 83.2174 75.8186 83.0382L83.7159 82.7624C88.7587 82.5863 92.8544 78.6307 93.2059 73.5973Z" fill="white" fill-opacity="0.4"/>
<path d="M70.9259 60.5273C73.8871 59.7186 77.096 59.449 80.5178 59.8638C86.475 60.5857 90.739 62.4332 93.5234 64.7034C94.3892 65.4094 94.7584 66.5232 94.5836 67.6464L94.5687 67.7351L94.041 70.6497L91.9989 70.28L92.5266 67.3654C92.6069 66.9219 92.4839 66.5336 92.212 66.3119C89.7281 64.2867 85.831 62.5982 80.2681 61.9241C77.121 61.5426 74.1816 61.7895 71.4726 62.5293C69.4672 63.0769 67.7479 63.8467 66.345 64.7021C65.9932 64.9164 65.7934 65.3324 65.8203 65.8146L65.8251 65.8779L66.1152 68.9024L64.0493 69.1005L63.7593 66.0759C63.6373 64.8034 64.1921 63.5838 65.2648 62.93C66.8264 61.978 68.7225 61.129 70.9259 60.5273Z" fill="black"/>
<path d="M114.231 31.9726C101.883 25.124 96.5907 24.5792 82.0635 35.0856C67.4065 31.3241 80.507 21.7256 86.2141 18.872C91.9212 16.0185 104.762 14.9808 115.528 20.4285C126.294 25.8763 129.666 40.5333 114.231 31.9726Z" fill="#311E1C"/>
<path d="M74.9826 44.5695C81.9704 36.3827 95.2006 33.1401 98.573 30.8053C99.8704 30.1771 99.8701 20.6763 96.7571 18.2237C92.4768 14.8513 77.301 21.4664 70.5562 27.8221C63.8114 34.1778 57.1236 47.4047 54.0834 66.4751C52.6566 75.4249 51.619 103.831 51.619 113.948C51.619 124.065 52.7863 137.166 51.619 148.71C50.8225 156.586 49.6748 170.886 49.675 190.213C49.6751 194.626 62.0652 195.961 62.7737 192.418C63.8114 187.23 62.905 157.919 63.9429 148.71C65.0869 138.56 66.9244 131.459 65.4976 121.99C64.071 112.521 59.7904 103.053 61.4766 97.4752C63.1628 91.8978 62.5143 78.2785 62.7737 69.8475C63.0331 61.4165 67.8966 52.8713 74.9826 44.5695Z" fill="#311E1C"/>
<path d="M65.3698 152.857C63.7096 144.971 60.4843 108.886 59.9221 92.0242C60.1815 92.1106 62.5422 92.6986 63.1648 92.8024C63.7874 92.9062 64.2889 92.8457 64.4619 92.8024C65.1968 96.0451 65.5187 100.883 67.964 105.773C69.9096 109.664 73.4117 113.512 75.0979 115.242C76.568 120.992 79.7155 134.465 80.5456 142.351C81.5833 152.209 80.5456 183.079 78.2109 183.079C72.7909 183.079 68.9773 183.857 67.964 180.615C66.0184 174.389 67.4452 162.715 65.3698 152.857Z" fill="#311E1C"/>
<path d="M120.626 41.4382C112.96 34.0795 100.65 32.4884 99.4829 30.6725C98.2722 26.5219 98.0338 19.5466 103.374 17.7018C110.509 15.2374 129.316 25.2247 135.542 41.4382C140.183 53.524 143.324 81.9069 143.195 84.5011C143.065 87.0952 138.655 128.861 138.006 135.346C137.358 141.832 137.617 146.631 138.006 160.25C138.395 173.87 138.395 185.407 135.542 186.192C130.354 187.619 114.14 185.543 111.935 185.154C109.73 184.765 111.157 175.763 111.157 170.757C111.157 163.882 115.826 140.664 118.291 131.715C120.185 124.837 129.575 102.92 130.224 101.104C130.743 99.6509 131.521 94.7913 131.781 92.6726L131.787 92.6747C132.087 92.7606 132.394 92.8483 134.764 92.0241C137.747 90.9865 140.99 87.4843 141.768 84.1119C142.546 80.7395 141.898 77.3671 140.082 74.2542C138.629 71.7638 134.504 70.1468 133.337 69.8441C133.337 66.9905 133.207 63.4884 132.818 61.5428C131.836 56.6331 127.111 47.6641 120.626 41.4382Z" fill="#311E1C"/>
</g>
</svg>
