<svg width="23" height="22" viewBox="0 0 23 22" fill="none" xmlns="http://www.w3.org/2000/svg">
<path d="M0.800049 21.6L2.31835 16.0533C1.38145 14.4297 0.889149 12.5892 0.890049 10.7019C0.892749 4.8015 5.69425 0 11.5937 0C14.4566 0.0009 17.144 1.116 19.1654 3.1392C21.1859 5.1624 22.2983 7.8516 22.2974 10.7118C22.2947 16.6131 17.4932 21.4146 11.5937 21.4146C9.80275 21.4137 8.03785 20.9646 6.47455 20.1114L0.800049 21.6ZM6.73735 18.1737C8.24575 19.0692 9.68575 19.6056 11.5901 19.6065C16.4933 19.6065 20.4875 15.6159 20.4902 10.71C20.492 5.7942 16.5167 1.809 11.5973 1.8072C6.69055 1.8072 2.69905 5.7978 2.69725 10.7028C2.69635 12.7053 3.28315 14.2047 4.26865 15.7734L3.36955 19.0566L6.73735 18.1737ZM16.9856 13.2561C16.919 13.1445 16.7408 13.0779 16.4726 12.9438C16.2053 12.8097 14.8904 12.1626 14.6447 12.0735C14.3999 11.9844 14.2217 11.9394 14.0426 12.2076C13.8644 12.4749 13.3514 13.0779 13.1957 13.2561C13.04 13.4343 12.8834 13.4568 12.6161 13.3227C12.3488 13.1886 11.4866 12.9069 10.4651 11.9952C9.67045 11.286 9.13315 10.4103 8.97745 10.1421C8.82175 9.8748 8.96125 9.7299 9.09445 9.5967C9.21505 9.477 9.36175 9.2844 9.49585 9.1278C9.63175 8.973 9.67585 8.8614 9.76585 8.6823C9.85495 8.5041 9.81085 8.3475 9.74335 8.2134C9.67585 8.0802 9.14125 6.7635 8.91895 6.228C8.70115 5.7069 8.48065 5.7771 8.31685 5.769L7.80385 5.76C7.62565 5.76 7.33585 5.8266 7.09105 6.0948C6.84625 6.363 6.15505 7.0092 6.15505 8.3259C6.15505 9.6426 7.11355 10.9143 7.24675 11.0925C7.38085 11.2707 9.13225 13.9725 11.8151 15.1308C12.4532 15.4062 12.9518 15.5709 13.3397 15.6942C13.9805 15.8976 14.5637 15.8688 15.0245 15.8004C15.5384 15.7239 16.6067 15.1533 16.8299 14.5287C17.0531 13.9032 17.0531 13.3677 16.9856 13.2561Z" fill="#121212"/>
</svg>
