<svg width="23" height="22" viewBox="0 0 23 22" fill="none" xmlns="http://www.w3.org/2000/svg">
<g clip-path="url(#clip0_634_4925)">
<path d="M21.9848 6.48012C21.9848 6.48012 21.7739 4.9909 21.1242 4.33699C20.3015 3.47637 19.3818 3.47215 18.96 3.42152C15.9394 3.20215 11.4042 3.20215 11.4042 3.20215H11.3958C11.3958 3.20215 6.8606 3.20215 3.83998 3.42152C3.4181 3.47215 2.49841 3.47637 1.67576 4.33699C1.02607 4.9909 0.819351 6.48012 0.819351 6.48012C0.819351 6.48012 0.599976 8.2309 0.599976 9.97746V11.6143C0.599976 13.3609 0.815132 15.1117 0.815132 15.1117C0.815132 15.1117 1.02607 16.6009 1.67154 17.2548C2.49419 18.1154 3.57419 18.0859 4.05513 18.1787C5.78482 18.3432 11.4 18.3939 11.4 18.3939C11.4 18.3939 15.9394 18.3854 18.96 18.1703C19.3818 18.1196 20.3015 18.1154 21.1242 17.2548C21.7739 16.6009 21.9848 15.1117 21.9848 15.1117C21.9848 15.1117 22.2 13.3651 22.2 11.6143V9.97746C22.2 8.2309 21.9848 6.48012 21.9848 6.48012ZM9.16826 13.6014V7.53059L15.0028 10.5765L9.16826 13.6014Z" fill="#121212"/>
</g>
<defs>
<clipPath id="clip0_634_4925">
<rect width="21.6" height="21.6" fill="white" transform="translate(0.599976)"/>
</clipPath>
</defs>
</svg>
